<svg width="9" height="18" viewBox="0 0 9 18" fill="none" xmlns="http://www.w3.org/2000/svg">
<path id="attachment" d="M7.77163 4.7032L7.77163 13.3583C7.77163 15.0681 6.51999 16.5897 4.81841 16.7533C2.87141 16.9415 1.2271 15.4117 1.2271 13.4974L1.2271 3.38612C1.2271 2.31445 1.99608 1.34095 3.05957 1.2346C4.28667 1.11189 5.31743 2.06903 5.31743 3.27159L5.31743 11.8613C5.31743 12.3112 4.9493 12.6794 4.49937 12.6794C4.04943 12.6794 3.6813 12.3112 3.6813 11.8613L3.6813 4.7032C3.6813 4.36779 3.40316 4.08965 3.06775 4.08965C2.73234 4.08965 2.4542 4.36779 2.4542 4.7032L2.4542 11.7468C2.4542 12.8184 3.22318 13.7919 4.28667 13.8983C5.51377 14.021 6.54453 13.0638 6.54453 11.8613L6.54453 3.41066C6.54453 1.7009 5.29289 0.179295 3.59131 0.0156803C1.63613 -0.172474 0 1.35731 0 3.27159L0 13.3093C0 15.6571 1.71794 17.7595 4.05761 17.9804C6.74905 18.2258 8.99873 16.1316 8.99873 13.4974V4.7032C8.99873 4.36779 8.72059 4.08965 8.38518 4.08965C8.04978 4.08965 7.77163 4.36779 7.77163 4.7032Z" fill="#191919" fill-opacity="0.75"/>
</svg>
