<svg width="20" height="18" viewBox="0 0 20 18" fill="none" xmlns="http://www.w3.org/2000/svg">
<g id="camra">
<path id="Vector" d="M2.8 17.2H17.2C18.1941 17.2 19 16.3941 19 15.4V6.04C19 5.04589 18.1941 4.24 17.2 4.24H14.5L12.25 1H7.75L5.5 4.24H2.8C1.80589 4.24 1 5.04589 1 6.04V15.4C1 16.3941 1.80589 17.2 2.8 17.2Z" stroke="#191919" stroke-opacity="0.75" stroke-width="1.6" stroke-linecap="round" stroke-linejoin="round"/>
<path id="Vector_2" d="M10 13.5999C11.9882 13.5999 13.6 11.9881 13.6 9.9999C13.6 8.01168 11.9882 6.3999 10 6.3999C8.0118 6.3999 6.40002 8.01168 6.40002 9.9999C6.40002 11.9881 8.0118 13.5999 10 13.5999Z" stroke="#191919" stroke-opacity="0.75" stroke-width="1.6" stroke-linecap="round" stroke-linejoin="round"/>
</g>
</svg>
