<svg width="24" height="17" viewBox="0 0 24 17" fill="none" xmlns="http://www.w3.org/2000/svg">
<path id="video" d="M22.7886 2.57871C22.4242 2.41463 22.0196 2.36126 21.6251 2.42523C21.2306 2.4892 20.8636 2.6677 20.5697 2.93853L17.991 5.33733V3.5982C17.991 2.6439 17.6119 1.72868 16.9371 1.05389C16.2623 0.379095 15.3471 0 14.3928 0H3.5982C2.6439 0 1.72868 0.379095 1.05389 1.05389C0.379095 1.72868 0 2.6439 0 3.5982V13.1934C0 14.1477 0.379095 15.0629 1.05389 15.7377C1.72868 16.4125 2.6439 16.7916 3.5982 16.7916H14.3928C15.3471 16.7916 16.2623 16.4125 16.9371 15.7377C17.6119 15.0629 17.991 14.1477 17.991 13.1934V11.4543L20.5817 13.8531C20.9631 14.1983 21.4586 14.3905 21.973 14.3928C22.2585 14.3921 22.5406 14.3308 22.8006 14.2129C23.1544 14.0698 23.4574 13.8245 23.6711 13.5083C23.8847 13.1921 23.9992 12.8194 24 12.4378V4.35382C23.9983 3.97084 23.882 3.59714 23.6661 3.28079C23.4502 2.96445 23.1446 2.71993 22.7886 2.57871ZM15.5922 13.1934C15.5922 13.5115 15.4658 13.8166 15.2409 14.0415C15.016 14.2664 14.7109 14.3928 14.3928 14.3928H3.5982C3.2801 14.3928 2.97503 14.2664 2.7501 14.0415C2.52517 13.8166 2.3988 13.5115 2.3988 13.1934V3.5982C2.3988 3.2801 2.52517 2.97503 2.7501 2.7501C2.97503 2.52517 3.2801 2.3988 3.5982 2.3988H14.3928C14.7109 2.3988 15.016 2.52517 15.2409 2.7501C15.4658 2.97503 15.5922 3.2801 15.5922 3.5982V13.1934ZM21.5892 11.5142L18.2189 8.3958L21.5892 5.27736V11.5142Z" fill="white"/>
</svg>
